<svg width="176" height="47" viewBox="0 0 176 47" fill="none" xmlns="http://www.w3.org/2000/svg">
<g filter="url(#filter0_d_1088_976)">
<path d="M59.2221 20.8619C59.4036 20.6502 59.4943 20.3931 59.4943 20.0957C59.4943 19.7982 59.4036 19.5361 59.2221 19.3042C59.0557 19.0571 58.8087 18.9361 58.481 18.9361H56.409V21.1795H58.481C58.8137 21.1795 59.0607 21.0737 59.2221 20.8619ZM56.414 25.2984V27.7132H58.7079C59.086 27.7132 59.3632 27.5922 59.5447 27.3452C59.7413 27.083 59.8422 26.7957 59.8422 26.4831V26.4579C59.8422 26.1453 59.7363 25.8731 59.5195 25.6462C59.3229 25.4143 59.0507 25.3034 58.7079 25.3034H56.414V25.2984ZM59.3481 31.953H50.9139C50.7324 31.953 50.5761 31.8874 50.445 31.7564C50.314 31.6253 50.2484 31.469 50.2484 31.2875V15.3618C50.2484 15.1803 50.314 15.024 50.445 14.8929C50.5761 14.7619 50.7324 14.6963 50.9139 14.6963H59.1011C61.4352 14.6963 63.1543 15.1248 64.2534 15.9768C65.3726 16.8137 65.9321 18.0892 65.9321 19.7982V19.8738C65.9321 20.5796 65.7255 21.2148 65.3171 21.7744C64.9037 22.3189 64.455 22.7121 63.961 22.9592C64.6163 23.2213 65.1709 23.6902 65.6145 24.3657C66.0733 25.0211 66.3052 25.747 66.3052 26.5335C66.3002 30.1482 63.9811 31.953 59.3481 31.953ZM68.1453 28.2829C68.1453 26.0646 69.9451 24.643 73.5446 24.0179L76.1561 23.5994C76.1561 23.1054 76.1157 22.7777 76.0351 22.6113C75.9544 22.4298 75.7578 22.3391 75.4452 22.3391C75.1478 22.3391 74.8554 22.4701 74.558 22.7323C74.2605 22.9944 73.9832 23.1255 73.7211 23.1255H69.5317C69.1687 23.1255 68.9872 22.9541 68.9872 22.6063C68.9872 22.2433 69.1082 21.8652 69.3552 21.472C69.6174 21.0586 69.9905 20.6603 70.4643 20.262C70.9584 19.8688 71.639 19.5411 72.5112 19.2739C73.3984 19.0118 74.3865 18.8807 75.4704 18.8807C77.6735 18.8807 79.3271 19.3394 80.4261 20.262C81.5251 21.1846 82.0797 22.4954 82.0797 24.2044V31.2825C82.0797 31.464 82.0142 31.6203 81.8831 31.7513C81.752 31.8824 81.5957 31.9479 81.4142 31.9479H77.0988C76.9173 31.9479 76.761 31.8824 76.63 31.7513C76.4989 31.6203 76.4333 31.464 76.4333 31.2825V30.5918C75.662 31.6606 74.5327 32.195 73.0556 32.195C71.5785 32.195 70.3837 31.8269 69.4813 31.0859C68.589 30.3347 68.1453 29.397 68.1453 28.2829ZM74.6285 28.55C75.6973 28.55 76.2317 27.9098 76.2317 26.6242L74.7747 26.9469C74.0538 27.1133 73.6908 27.4157 73.6908 27.8594C73.6908 28.056 73.7715 28.2224 73.9379 28.3534C74.1042 28.4845 74.3311 28.55 74.6285 28.55ZM98.928 24.4817V31.2875C98.928 31.469 98.8624 31.6253 98.7314 31.7564C98.6003 31.8874 98.444 31.953 98.2625 31.953H93.5539C93.3724 31.953 93.2161 31.8874 93.085 31.7564C92.954 31.6253 92.8884 31.469 92.8884 31.2875V24.6581C92.8884 23.7557 92.475 23.302 91.6533 23.302C90.8315 23.302 90.4181 23.7557 90.4181 24.6581V31.2875C90.4181 31.469 90.3526 31.6253 90.2215 31.7564C90.0905 31.8874 89.9342 31.953 89.7527 31.953H85.0692C84.8877 31.953 84.7315 31.8874 84.6004 31.7564C84.4693 31.6253 84.4038 31.469 84.4038 31.2875V19.7982C84.4038 19.6167 84.4693 19.4604 84.6004 19.3294C84.7315 19.1983 84.8877 19.1327 85.0692 19.1327H89.3847C89.5661 19.1327 89.7224 19.1983 89.8535 19.3294C89.9846 19.4604 90.0501 19.6167 90.0501 19.7982V20.6099C90.4786 20.1007 91.0534 19.6873 91.7743 19.3798C92.5154 19.0521 93.3018 18.8857 94.1387 18.8857C95.4847 18.8857 96.619 19.3646 97.5416 20.3175C98.4692 21.2552 98.928 22.6416 98.928 24.4817ZM100.889 26.5083V24.5623C100.889 22.7222 101.383 21.3157 102.366 20.3477C103.354 19.3798 104.554 18.8908 105.966 18.8908C107.398 18.8908 108.537 19.2789 109.394 20.0503V15.1198C109.394 14.9383 109.459 14.782 109.591 14.651C109.722 14.5199 109.878 14.4543 110.059 14.4543H114.622C114.803 14.4543 114.96 14.5199 115.091 14.651C115.222 14.782 115.287 14.9383 115.287 15.1198V31.2926C115.287 31.4741 115.222 31.6303 115.091 31.7614C114.96 31.8925 114.803 31.958 114.622 31.958H110.432C110.251 31.958 110.095 31.8925 109.964 31.7614C109.832 31.6303 109.767 31.4741 109.767 31.2926V30.5515C108.915 31.6505 107.705 32.2051 106.142 32.2051C104.579 32.2051 103.314 31.7463 102.346 30.8237C101.373 29.886 100.889 28.4442 100.889 26.5083ZM109.394 26.3571V24.5321C109.343 23.7103 108.935 23.302 108.159 23.302C107.337 23.302 106.929 23.7759 106.929 24.7337V26.3621C106.929 27.3149 107.342 27.7938 108.159 27.7938C108.986 27.7888 109.394 27.3099 109.394 26.3571ZM123.52 14.6963H128.869C129.459 14.6963 129.832 14.9686 129.978 15.508L135.478 31.2371C135.493 31.2875 135.503 31.3682 135.503 31.4841C135.503 31.5799 135.448 31.6908 135.332 31.8017C135.236 31.9026 135.11 31.9479 134.964 31.9479H130.401C129.907 31.9479 129.59 31.7412 129.438 31.3329L128.849 29.7045H123.55L122.96 31.3329C122.814 31.7463 122.491 31.9479 121.997 31.9479H117.435C117.289 31.9479 117.158 31.8975 117.042 31.8017C116.941 31.6858 116.895 31.5799 116.895 31.4841C116.895 31.3682 116.906 31.2875 116.921 31.2371L122.421 15.508C122.562 14.9686 122.93 14.6963 123.52 14.6963ZM124.805 24.9051H127.593L126.187 20.3175L124.805 24.9051ZM151.51 24.5825V26.5285C151.51 28.3686 151.016 29.7751 150.032 30.7431C149.044 31.711 147.839 32.2 146.408 32.2C144.996 32.2 143.862 31.8118 143.005 31.0405V35.971C143.005 36.1525 142.939 36.3087 142.808 36.4398C142.677 36.5709 142.521 36.6364 142.339 36.6364H137.777C137.595 36.6364 137.439 36.5709 137.308 36.4398C137.177 36.3087 137.111 36.1525 137.111 35.971V19.7982C137.111 19.6167 137.177 19.4604 137.308 19.3294C137.439 19.1983 137.595 19.1327 137.777 19.1327H141.966C142.148 19.1327 142.304 19.1983 142.435 19.3294C142.566 19.4604 142.632 19.6167 142.632 19.7982V20.5393C143.489 19.4403 144.694 18.8857 146.256 18.8857C147.819 18.8857 149.085 19.3546 150.053 20.2923C151.026 21.2148 151.51 22.6416 151.51 24.5825ZM143.005 24.7287V26.5537C143.055 27.3754 143.464 27.7888 144.24 27.7888C145.062 27.7888 145.47 27.3099 145.47 26.3571V24.7287C145.47 23.7759 145.057 23.2969 144.24 23.2969C143.413 23.302 143.005 23.7759 143.005 24.7287ZM168 24.5825V26.5285C168 28.3686 167.506 29.7751 166.523 30.7431C165.535 31.711 164.33 32.2 162.898 32.2C161.486 32.2 160.352 31.8118 159.495 31.0405V35.971C159.495 36.1525 159.43 36.3087 159.299 36.4398C159.167 36.5709 159.011 36.6364 158.83 36.6364H154.267C154.086 36.6364 153.929 36.5709 153.798 36.4398C153.667 36.3087 153.602 36.1525 153.602 35.971V19.7982C153.602 19.6167 153.667 19.4604 153.798 19.3294C153.929 19.1983 154.086 19.1327 154.267 19.1327H158.457C158.638 19.1327 158.794 19.1983 158.925 19.3294C159.057 19.4604 159.122 19.6167 159.122 19.7982V20.5393C159.979 19.4403 161.184 18.8857 162.747 18.8857C164.31 18.8857 165.575 19.3546 166.543 20.2923C167.516 21.2148 168 22.6416 168 24.5825ZM159.495 24.7287V26.5537C159.546 27.3754 159.954 27.7888 160.73 27.7888C161.552 27.7888 161.965 27.3099 161.965 26.3571V24.7287C161.965 23.7759 161.552 23.2969 160.73 23.2969C159.909 23.2969 159.495 23.7759 159.495 24.7287Z" fill="white"/>
<g clip-path="url(#clip0_1088_976)">
<path d="M35.4379 14.7405V23.921C35.4379 23.9704 35.4379 24.0198 35.4357 24.0693C35.357 30.3514 30.2227 35.4359 23.9221 35.4359H11.3705V22.8852C11.3705 16.5357 16.5363 11.3702 22.8863 11.3702H25.3063V8H22.8863C14.6646 8 8 14.6641 8 22.8852V38.8061H23.9221C32.0787 38.8061 38.7028 32.2454 38.8061 24.1142V14.7405H35.4379Z" fill="#EE2FF4"/>
<path d="M28.6768 8V16.5581C27.2162 15.4302 25.3849 14.7584 23.4031 14.7584C18.635 14.7584 14.7567 18.6364 14.7567 23.4042C14.7567 28.1697 18.635 32.0477 23.4031 32.0477C28.169 32.0477 32.0472 28.1697 32.0472 23.4042C32.0472 23.3368 32.0472 23.2694 32.045 23.202H32.0472V11.3702H38.8062V8H28.6768ZM23.4031 28.6775C20.4933 28.6775 18.1272 26.3116 18.1272 23.4042C18.1272 20.4946 20.4933 18.1287 23.4031 18.1287C26.3107 18.1287 28.6768 20.4946 28.6768 23.4042C28.6768 26.3116 26.3107 28.6775 23.4031 28.6775Z" fill="#30F2C3"/>
</g>
</g>
<defs>
<filter id="filter0_d_1088_976" x="0" y="0" width="176" height="46.8062" filterUnits="userSpaceOnUse" color-interpolation-filters="sRGB">
<feFlood flood-opacity="0" result="BackgroundImageFix"/>
<feColorMatrix in="SourceAlpha" type="matrix" values="0 0 0 0 0 0 0 0 0 0 0 0 0 0 0 0 0 0 127 0" result="hardAlpha"/>
<feOffset/>
<feGaussianBlur stdDeviation="4"/>
<feComposite in2="hardAlpha" operator="out"/>
<feColorMatrix type="matrix" values="0 0 0 0 0 0 0 0 0 0 0 0 0 0 0 0 0 0 0.75 0"/>
<feBlend mode="normal" in2="BackgroundImageFix" result="effect1_dropShadow_1088_976"/>
<feBlend mode="normal" in="SourceGraphic" in2="effect1_dropShadow_1088_976" result="shape"/>
</filter>
<clipPath id="clip0_1088_976">
<rect width="30.8061" height="30.8061" fill="white" transform="translate(8 8)"/>
</clipPath>
</defs>
</svg>
