<svg width="40" height="40" viewBox="0 0 40 40" fill="none" xmlns="http://www.w3.org/2000/svg">
<rect width="40" height="40" rx="20" fill="#30F2C3" fill-opacity="0.1"/>
<path d="M18.259 10.5464C19.3898 10.588 20.4964 10.8871 21.4944 11.4204C22.4923 11.9537 23.3558 12.7076 24.0188 13.6245C24.6818 14.5415 25.1268 15.5975 25.3206 16.7124L25.3713 17.0005L25.637 17.1196C26.5172 17.5154 27.2977 18.1037 27.9202 18.8413C28.5426 19.5789 28.9914 20.4471 29.2336 21.3813C29.4758 22.3156 29.5052 23.2927 29.3196 24.2397C29.1338 25.187 28.7375 26.0813 28.1604 26.855L27.8762 27.2358L29.3118 28.6714C29.3727 28.7342 29.4143 28.8139 29.4309 28.8999C29.4476 28.987 29.4379 29.077 29.4036 29.1587L29.4016 29.1636C29.3678 29.2455 29.311 29.3162 29.2375 29.3657C29.1639 29.4154 29.0764 29.4415 28.9875 29.4419H22.9954C21.7777 29.4394 20.5853 29.0919 19.5569 28.4399C18.5286 27.788 17.7056 26.8584 17.1838 25.7583L17.0354 25.4438H11.0032C10.9145 25.4433 10.8277 25.4172 10.7542 25.3677C10.6806 25.3181 10.6239 25.2475 10.5901 25.1655L10.5881 25.1606L10.5667 25.0981C10.5503 25.0342 10.5483 24.9672 10.5608 24.9019C10.5776 24.8146 10.6204 24.7337 10.6829 24.6704L10.6819 24.6694L12.0676 23.2954L12.4133 22.9517L12.1135 22.5669C11.4178 21.6747 10.9346 20.6357 10.7004 19.5288C10.4663 18.4216 10.4878 17.275 10.7629 16.1772C11.0381 15.0795 11.5597 14.0587 12.2883 13.1929C13.017 12.3271 13.9336 11.6387 14.968 11.1802C16.0025 10.7216 17.1283 10.5048 18.259 10.5464ZM24.6213 17.7397C23.394 17.3655 22.0742 17.4282 20.8879 17.9175C19.7019 18.4067 18.7221 19.2918 18.1155 20.4224C17.5088 21.5531 17.3125 22.8597 17.5608 24.1187C17.8091 25.3775 18.4865 26.5109 19.4768 27.3267C20.4673 28.1424 21.7102 28.59 22.9934 28.5923H27.9084L26.9709 27.6538L26.9211 27.604L26.5823 27.9429V27.9409L26.9172 27.6001C26.8747 27.5584 26.8408 27.5084 26.8176 27.4536C26.7952 27.4003 26.7824 27.3434 26.7815 27.2856C26.7845 27.1689 26.8337 27.0579 26.9172 26.9761L26.9202 26.9722C27.8286 26.066 28.3952 24.873 28.5227 23.5962C28.6501 22.3195 28.3306 21.0381 27.6194 19.9702C26.9081 18.9024 25.8485 18.1141 24.6213 17.7397ZM17.9973 11.4507C16.2612 11.4507 14.596 12.1411 13.3684 13.3687C12.1413 14.5959 11.451 16.2601 11.4504 17.9956C11.447 18.8565 11.6155 19.7093 11.9456 20.5044C12.2755 21.2992 12.7606 22.0202 13.3723 22.6255C13.4145 22.6673 13.4481 22.7172 13.4709 22.772C13.4937 22.8267 13.5051 22.8856 13.5051 22.9448C13.5051 23.0042 13.4938 23.0638 13.4709 23.1187C13.4489 23.1716 13.4163 23.2194 13.3762 23.2603L13.0266 23.6001L12.0549 24.5444H16.72L16.6213 23.9097C16.5739 23.6073 16.5485 23.3017 16.5471 22.9956C16.5471 21.2859 17.2269 19.646 18.4358 18.437C19.6447 17.228 21.2847 16.5483 22.9944 16.5483H24.4153L24.1633 15.8188C23.7205 14.5374 22.8871 13.4265 21.7805 12.6431C20.6749 11.8604 19.3518 11.4443 17.9973 11.4517V11.4507Z" fill="#30F2C3" stroke="#30F2C3" stroke-width="1.09917"/>
</svg>
