<svg width="40" height="40" viewBox="0 0 40 40" fill="none" xmlns="http://www.w3.org/2000/svg">
<rect width="40" height="40" rx="20" fill="#30F2C3" fill-opacity="0.1"/>
<path d="M19.95 12.3057C20.0693 12.2913 20.1905 12.3087 20.3015 12.3545H20.3025C20.422 12.4114 20.5237 12.5005 20.5945 12.6123C20.6476 12.6962 20.682 12.7902 20.696 12.8877L20.7029 12.9863V27.0264C20.7024 27.1584 20.6651 27.2878 20.5945 27.3994C20.5237 27.5112 20.422 27.6003 20.3025 27.6572L20.2947 27.6611C20.2053 27.7069 20.106 27.7302 20.0056 27.7285H20.0027C19.884 27.7278 19.7684 27.6967 19.6658 27.6396L19.5671 27.5742L14.823 23.7822L14.741 23.7168H10.9744C10.7882 23.7168 10.6099 23.6424 10.4783 23.5107C10.3466 23.3791 10.2722 23.2008 10.2722 23.0146V16.9971C10.2722 16.8109 10.3467 16.6326 10.4783 16.501C10.6099 16.3693 10.7882 16.2949 10.9744 16.2949H14.74L14.822 16.2305L19.6111 12.4424C19.71 12.3678 19.8269 12.3205 19.95 12.3057ZM26.9714 14.335C27.1587 14.335 27.339 14.4096 27.4714 14.542C28.229 15.2996 28.8206 16.2065 29.2087 17.2051C29.5968 18.2037 29.7725 19.2724 29.7253 20.3428C29.6781 21.4131 29.4088 22.4622 28.9343 23.4229C28.4598 24.3835 27.79 25.2348 26.9685 25.9229C26.8427 26.0266 26.6852 26.083 26.5222 26.083C26.3798 26.0814 26.2411 26.0373 26.1248 25.9551C26.0082 25.8726 25.9197 25.7562 25.8708 25.6221C25.822 25.4877 25.8149 25.3414 25.8513 25.2031C25.8877 25.065 25.9645 24.9405 26.073 24.8477C26.7432 24.2842 27.2897 23.5882 27.6765 22.8027C28.0635 22.0166 28.2824 21.1586 28.3201 20.2832C28.3577 19.4078 28.2134 18.5342 27.8953 17.7178C27.5771 16.9013 27.0925 16.1592 26.4724 15.54H26.4714C26.3394 15.4077 26.2654 15.228 26.2654 15.041C26.2654 14.8538 26.34 14.6744 26.4724 14.542C26.6048 14.4096 26.7842 14.335 26.9714 14.335ZM18.8103 14.8359L15.4207 17.5439L15.4197 17.5449C15.2962 17.6439 15.1424 17.6983 14.9841 17.6992H11.6765V22.3125H14.9841C15.1424 22.3134 15.2962 22.3678 15.4197 22.4668L15.4207 22.4678L18.8103 25.1758L19.2986 25.5654V14.4463L18.8103 14.8359ZM24.3142 20.0049C24.3116 19.3941 24.0658 18.8086 23.6326 18.3779C23.5675 18.3126 23.5165 18.2346 23.4812 18.1494C23.4458 18.0639 23.4275 17.9724 23.4275 17.8799C23.4275 17.7871 23.4457 17.6951 23.4812 17.6094C23.5167 17.5237 23.568 17.4454 23.6335 17.3799C23.6991 17.3143 23.7774 17.263 23.863 17.2275C23.9487 17.1921 24.0408 17.1738 24.1335 17.1738C24.2261 17.1739 24.3176 17.1921 24.4031 17.2275C24.4887 17.263 24.567 17.3144 24.6326 17.3799C25.2801 18.0367 25.6629 18.9065 25.7126 19.8232L25.7175 20.0078C25.7165 20.5483 25.5977 21.0826 25.3689 21.5723C25.1397 22.0625 24.806 22.497 24.3914 22.8447H24.3904C24.3199 22.9042 24.2381 22.9496 24.1501 22.9775C24.0623 23.0054 23.9695 23.0156 23.8777 23.0078C23.7859 23 23.6968 22.974 23.615 22.9316C23.5331 22.8892 23.4596 22.8313 23.4001 22.7607C23.3416 22.6901 23.2975 22.6081 23.2703 22.5205C23.243 22.4325 23.2335 22.3399 23.2419 22.248C23.2504 22.1562 23.2771 22.067 23.3201 21.9854C23.3631 21.9037 23.4219 21.8314 23.4929 21.7725L23.4949 21.7705C23.7517 21.5538 23.9579 21.2833 24.0994 20.9785C24.2408 20.6738 24.3144 20.3418 24.3142 20.0059V20.0049Z" fill="#30F2C3" stroke="#30F2C3" stroke-width="0.601777"/>
</svg>
